/* XPM */
static char *_511049350543[] = {
/* columns rows colors chars-per-pixel */
"16 16 83 1 ",
"  c black",
". c #000505",
"X c #040404",
"o c #040505",
"O c #060404",
"+ c #060606",
"@ c #0C0000",
"# c #0E0000",
"$ c #0F0000",
"% c #000808",
"& c #030E0E",
"* c #090808",
"= c #0C0C0C",
"- c #1D0101",
"; c #160B0B",
": c #001212",
"> c #001313",
", c #0D1313",
"< c #061A1A",
"1 c #121515",
"2 c #121E1E",
"3 c gray11",
"4 c #1C1F1F",
"5 c #1D1F1F",
"6 c #1E1E1E",
"7 c #220505",
"8 c #240606",
"9 c #2F0000",
"0 c #300000",
"q c #320000",
"w c #112525",
"e c #142525",
"r c #1E2525",
"t c gray13",
"y c #252626",
"u c #2A2A2A",
"i c #223131",
"p c #243030",
"a c #323333",
"s c #333434",
"d c #3A3A3A",
"f c #4A0101",
"g c #5B0000",
"h c #6E0000",
"j c #700000",
"k c #750000",
"l c #760000",
"z c #780000",
"x c #7A0000",
"c c #7A0101",
"v c #7B0101",
"b c #7C0000",
"n c #7C0101",
"m c #7D0101",
"M c #710808",
"N c #710A0A",
"B c #720C0C",
"V c #780B0B",
"C c #434242",
"Z c #4D5E5E",
"A c #546D6D",
"S c #800000",
"D c #810000",
"F c #820000",
"G c #850000",
"H c #860101",
"J c #820404",
"K c #8E0101",
"L c #8D0505",
"P c #900101",
"I c #970000",
"U c #900606",
"Y c #9B0808",
"T c #8A1515",
"R c #901717",
"E c #9A1616",
"W c #A00F0F",
"Q c #932323",
"! c #982020",
"~ c #A22020",
"^ c #A52323",
"/ c #A52C2C",
"( c None",
/* pixels */
"((((  ((((xx((((",
"((( 6s ((hxxx(((",
"(( d((A WL((nv((",
"( C((((h0((((nx(",
" 6((((h~e>((((vv",
" 6((((m!6p((((lv",
"(%Z(lSH$X(e<(KS(",
"(( $RQx9Mg;* B((",
"((B X1fV-lET7&((",
"(jK(w,(.$JSI(  (",
"xx((((rs/x((((y=",
"xx((((>i^H((((uX",
"(xn((((0S((((  (",
"((vn((UY8 ((  ((",
"(((vxxS(( rt (((",
"((((xm((((X (((("
};
