/* XPM */
static char *_511049336252[] = {
/* columns rows colors chars-per-pixel */
"64 64 228 2 ",
"   c black",
".  c #010000",
"X  c #000101",
"o  c #010101",
"O  c #020101",
"+  c #020202",
"@  c gray1",
"#  c #070000",
"$  c #000505",
"%  c #030505",
"&  c #030606",
"*  c #040404",
"=  c gray2",
"-  c #070707",
";  c #080000",
":  c #0A0000",
">  c #0B0000",
",  c #0C0000",
"<  c #0D0000",
"1  c #0C0101",
"2  c #0E0000",
"3  c #000808",
"4  c #000909",
"5  c #010D0D",
"6  c gray3",
"7  c #090909",
"8  c gray4",
"9  c #0B0B0B",
"0  c #0C0C0C",
"q  c gray5",
"w  c #0E0E0E",
"e  c gray6",
"r  c #100000",
"t  c #110000",
"y  c #100101",
"u  c #140000",
"i  c #160000",
"p  c #170000",
"a  c #170202",
"s  c #180000",
"d  c #1A0000",
"f  c #1C0000",
"g  c #1D0000",
"h  c #110808",
"j  c #011616",
"k  c #0A1515",
"l  c #0C1717",
"z  c #101010",
"x  c #111111",
"c  c gray7",
"v  c #131313",
"b  c #161212",
"n  c gray8",
"m  c #151515",
"M  c gray9",
"N  c #121B1B",
"B  c #181818",
"V  c #191919",
"C  c gray10",
"Z  c #1B1B1B",
"A  c gray11",
"S  c #1D1D1D",
"D  c #1E1E1E",
"F  c #200000",
"G  c #240101",
"H  c #270101",
"J  c #2B0000",
"K  c #2D0000",
"L  c #2C0101",
"P  c #2D0C0C",
"I  c #360101",
"U  c #350303",
"Y  c #3A0202",
"T  c #3E0202",
"R  c #3D0808",
"E  c #221A1A",
"W  c #142020",
"Q  c #122929",
"!  c #132B2B",
"~  c #202020",
"^  c #222222",
"/  c #222323",
"(  c #232323",
")  c #262020",
"_  c gray14",
"`  c #252525",
"'  c gray15",
"]  c #2D2D2D",
"[  c gray18",
"{  c #223333",
"}  c #253333",
"|  c #2F3030",
" . c #2D3939",
".. c #2F3A3A",
"X. c #313131",
"o. c #323232",
"O. c gray21",
"+. c #333E3E",
"@. c gray22",
"#. c #393939",
"$. c #3A3A3A",
"%. c #3C3C3C",
"&. c #400000",
"*. c #4A0101",
"=. c #530101",
"-. c #590101",
";. c #5A0101",
":. c #5A0202",
">. c #5E0101",
",. c #5C0202",
"<. c #5D0808",
"1. c #5A1A1A",
"2. c #600202",
"3. c #650000",
"4. c #660202",
"5. c #670404",
"6. c #690000",
"7. c #6B0000",
"8. c #680202",
"9. c #6B0202",
"0. c #6C0000",
"q. c #6E0000",
"w. c #6F0000",
"e. c #710101",
"r. c #720000",
"t. c #730101",
"y. c #740000",
"u. c #750000",
"i. c #740101",
"p. c #760000",
"a. c #770000",
"s. c #760101",
"d. c #770101",
"f. c #780000",
"g. c #790000",
"h. c #780101",
"j. c #790101",
"k. c #7A0000",
"l. c #7A0101",
"z. c #7B0101",
"x. c #7B0202",
"c. c #7C0000",
"v. c #7D0000",
"b. c #7C0101",
"n. c #7D0101",
"m. c #7E0000",
"M. c #7F0000",
"N. c #7E0101",
"B. c #7F0101",
"V. c #7D0202",
"C. c #7F0303",
"Z. c #7C0707",
"A. c #7B0808",
"S. c #7B0A0A",
"D. c #692727",
"F. c #742F2F",
"G. c #374444",
"H. c #414141",
"J. c #444444",
"K. c gray27",
"L. c #494242",
"P. c #494949",
"I. c #4B4B4B",
"U. c #4C4C4C",
"Y. c #4E4E4E",
"T. c #505050",
"R. c gray33",
"E. c gray34",
"W. c #505858",
"Q. c #535D5D",
"!. c #656565",
"~. c #686868",
"^. c #6D6D6D",
"/. c gray46",
"(. c #727B7B",
"). c gray47",
"_. c #810000",
"`. c #800101",
"'. c #810101",
"]. c #820000",
"[. c #830000",
"{. c #820101",
"}. c #830101",
"|. c #840000",
" X c #850000",
".X c #840101",
"XX c #850101",
"oX c #870000",
"OX c #860101",
"+X c #870101",
"@X c #810707",
"#X c #880101",
"$X c #890101",
"%X c #8A0000",
"&X c #8A0101",
"*X c #8B0101",
"=X c #8C0101",
"-X c #8D0101",
";X c #8F0000",
":X c #8E0101",
">X c #8F0101",
",X c #8A0606",
"<X c #8A0707",
"1X c #8A0808",
"2X c #8A0E0E",
"3X c #8C0D0D",
"4X c #900101",
"5X c #910101",
"6X c #920101",
"7X c #950000",
"8X c #940101",
"9X c #960101",
"0X c #970101",
"qX c #950202",
"wX c #980101",
"eX c #990101",
"rX c #9A0000",
"tX c #8F1212",
"yX c #8D1919",
"uX c #A10000",
"iX c #A70101",
"pX c #A01F1F",
"aX c #A71C1C",
"sX c #952121",
"dX c #8F3535",
"fX c #6F8787",
"gX c gray52",
"hX c None",
/* pixels */
"hXhXhXhXhXhXhXhXhXhXhXhXhXhXhXhXhXhXB e e e o.hXhXhXhXhXhXhXhXhXhXhXhXhXhXhXhXhXhXhXx.x.x.a.hXhXhXhXhXhXhXhXhXhXhXhXhXhXhXhXhXhX",
"hXhXhXhXhXhXhXhXhXhXhXhXhXhXhXhXK.            e hXhXhXhXhXhXhXhXhXhXhXhXhXhXhXhXx.a.x.x.x.x.a.x.hXhXhXhXhXhXhXhXhXhXhXhXhXhXhXhX",
"hXhXhXhXhXhXhXhXhXhXhXhXhXhXhXv                   hXhXhXhXhXhXhXhXhXhXhXhXhXhXx.x.x.x.x.x.x.x.x.x.hXhXhXhXhXhXhXhXhXhXhXhXhXhXhX",
"hXhXhXhXhXhXhXhXhXhXhXhXhXhX6                       hXhXhXhXhXhXhXhXhXhXhXhXx.x.x.a.x.a.a.x.a.x.x.x.hXhXhXhXhXhXhXhXhXhXhXhXhXhX",
"hXhXhXhXhXhXhXhXhXhXhXhXhX                            hXhXhXhXhXhXhXhXhXhXx.x.x.x.x.a.x.x.x.x.x.x.x.x.hXhXhXhXhXhXhXhXhXhXhXhXhX",
"hXhXhXhXhXhXhXhXhXhXhXhX                                hXhXhXhXhXhXhXhXx.x.x.a.x.a.x.x.a.x.a.x.a.x.x.x.hXhXhXhXhXhXhXhXhXhXhXhX",
"hXhXhXhXhXhXhXhXhXhXhX6             6 P.T.o.              hXhXhXhXhXhXx.a.x.x.x.x.x.x.x.x.x.x.x.x.a.x.a.x.hXhXhXhXhXhXhXhXhXhXhX",
"hXhXhXhXhXhXhXhXhXhX6             Y.hXhXhXhXhX              hXhXhXhXx.x.x.x.x.a.x.x.hXhXhXhXhXx.x.x.x.x.x.x.hXhXhXhXhXhXhXhXhXhX",
"hXhXhXhXhXhXhXhXhX6             R.hXhXhXhXhXhXhX=             hXhXa.x.x.x.x.a.x.hXhXhXhXhXhXhXhXx.a.x.a.a.x.x.hXhXhXhXhXhXhXhXhX",
"hXhXhXhXhXhXhXhXv             ~.hXhXhXhXhXhXhXhXhX6           : ,Xc.x.x.x.a.x.hXhXhXhXhXhXhXhXhXhXx.x.x.x.x.x.x.hXhXhXhXhXhXhXhX",
"hXhXhXhXhXhXhXe             ^.hXhXhXhXhXhXhXhXhXhXhXv       g [.c.x.a.x.x.x.hXhXhXhXhXhXhXhXhXhXhXhXx.x.x.x.x.a.x.hXhXhXhXhXhXhX",
"hXhXhXhXhXhXM             ).hXhXhXhXhXhXhXhXhXhXhXhXhXW   g oX$Xx.x.x.c.x.hXhXhXhXhXhXhXhXhXhXhXhXhXhXx.x.a.x.x.x.x.hXhXhXhXhXhX",
"hXhXhXhXhXv             hXhXhXhXhXhXhXhXhXhXhXhXhXhXhXhXP x.$Xa.x.a.[.C.hXhXhXhXhXhXhXhXhXhXhXhXhXhXhXhXx.x.x.a.a.x.x.hXhXhXhXhX",
"hXhXhXhXM             hXhXhXhXhXhXhXhXhXhXhXhXhXhXhXhXhX,Xc.a.x.a.$X[.a hXhXhXhXhXhXhXhXhXhXhXhXhXhXhXhXhXx.x.x.x.x.x.x.hXhXhXhX",
"hXhXhXM             hXhXhXhXhXhXhXhXhXhXhXhXhXhXhXhXhXa.x.x.x.a.$XoXg     hXhXhXhXhXhXhXhXhXhXhXhXhXhXhXhXhXa.x.x.x.x.a.x.hXhXhX",
"hXhX              hXhXhXhXhXhXhXhXhXhXhXhXhXhXhXhXhXx.x.x.x.a.oXoXs         hXhXhXhXhXhXhXhXhXhXhXhXhXhXhXhXhXx.x.a.x.x.x.x.hXhX",
"hX_             hXhXhXhXhXhXhXhXhXhXhXhXhXhXhXhXhXx.x.a.x.x.[.c.              hXhXhXhXhXhXhXhXhXhXhXhXhXhXhXhXx.x.x.a.x.x.x.x.hX",
"hX            hXhXhXhXhXhXhXhXhXhXhXhXhXhXhXhXhXa.x.x.x.a.x.[.hXhX&           P.hXhXhXhXhXhXhXhXhXhXhXhXhXhXhXhXx.x.x.x.x.a.x.hX",
"e           o.hXhXhXhXhXhXhXhXhXhXhXhXhXhXhXhXhXx.x.x.a.x.a.w.hXhXW.            hXhXhXhXhXhXhXhXhXhXhXhXhXhXhXhXhXx.x.x.x.x.x.x.",
"            hXhXhXhXhXhXhXhXhXhXhXhXhXhXhXhXhXhXa.x.x.x.x.x.hXhXhXhX            hXhXhXhXhXhXhXhXhXhXhXhXhXhXhXhXhXx.x.a.a.x.a.x.",
"=           hXhXhXhXhXhXhXhXhXhXhXhXhXhXhXhXhXhXx.x.x.x.x.x.hXhXhXhX            hXhXhXhXhXhXhXhXhXhXhXhXhXhXhXhXhXx.x.x.x.a.x.x.",
"M           M hXhXhXhXhXhXhXhXhXhXhXhXhXhXhXhXhXa.x.a.x.x.x.e.hXhX .            hXhXhXhXhXhXhXhXhXhXhXhXhXhXhXhXhXa.x.a.x.x.a.x.",
"hX            B hXhXhXhXhXhXhXhXhXhXhXhXhXhXhXhXx.x.x.a.x.a.a.aXhX            !.hXhXhXhXhXhXhXhXhXhXhXhXhXhXhXhXx.x.x.x.x.x.x.hX",
"hX@.            @.hXhXhXhXhXhXhXhXhXhXhXx.hXhXhXhXx.x.x.x.x.wX=.            v hXhXhXhXhXhXhXhXhXhXhXhXhXhXhXhXx.x.x.x.a.x.x.x.hX",
"hXhXB             E.hXhXhXhXhXhXhXx.x.x.x.x.x.x.hXhXx.x.x.9X-.            = hXhXhXhX_ v v _ hXhXhXhXhXhXhXhXx.x.a.x.x.a.x.x.hXhX",
"hXhXhX~             /.hXhXhXhXhXx.x.a.x.a.x.a.x.x.hXhXc.wX>.            N hXhXhXO.            P.hXhXhXhXhXa.x.a.x.x.x.x.x.hXhXhX",
"hXhXhXhXB             hXhXhXhXx.x.x.x.x.x.x.x.a.x.x.hXhX-.            3 hXhXhX                  M hXhXhXx.x.x.x.a.x.a.x.hXhXhXhX",
"hXhXhXhXhXD             hXhXx.x.a.x.a.x.a.x.x.x.x.x.6XhX            # 5.hXhX                      { hXhXe.x.x.a.x.x.x.hXhXhXhXhX",
"hXhXhXhXhXhXD             <.wXx.x.x.x.x.x.a.x.x.x.x.[.a.a         # e.wX[.                            C.6Xa.x.x.x.x.hXhXhXhXhXhX",
"hXhXhXhXhXhXhX=             -.wXc.a.x.x.x.x.x.x.a.x.a.$XoXa     : a.6Xa.[.e.a                         # x.>Xa.x.x.hXhXhXhXhXhXhX",
"hXhXhXhXhXhXhXhXG.            *.6X[.w.hXhXhX6.oX[.a.x.a.$XoX2   4.wXa.x.a.>XoXF     k +...j             2 c.$Xw.hXhXhXhXhXhXhXhX",
"hXhXhXhXhXhXhXhXhXe             I tXhXhXhXhXhXD.e.oXa.x.x.$Xe.hXhX2X[.a.x.x.$X$XF hXhXhXhXhXL.            r yXhXhXhXhXhXhXhXhXhX",
"hXhXhXhXhXhXhXhXhX@Xs             ) hXhXhXhXfXj g >X[.x.x.a.oXiXhXE e.>Xa.x.a.[.[.sXhXhXhXhXpXI             | hXhXhXhXhXhXhXhXhX",
"hXhXhXhXhXhXhXhXx.>X[.r               D _         L 6X[.a.x.6X5.    r [.>Xa.x.a.c.a.a.a.a.e.c.6XY             l hXhXhXhXhXhXhXhX",
"hXhXhXhXhXhXhXx.x.a.>Xc.:                           K oXx.6X6.        a x.[.x.x.x.a.x.x.x.x.a.[.9XT               hXhXhXhXhXhXhX",
"hXhXhXhXhXhXx.x.a.x.a.6XA.                            &.uX5.            b 2Xx.x.x.x.a.x.x.x.x.a.c.9XR               hXhXhXhXhXhX",
"hXhXhXhXhXx.x.x.x.a.x.e.hXhX}                       hXhXdX              hXhXa.x.x.a.x.a.x.x.x.x.x.6.hXhX              hXhXhXhXhX",
"hXhXhXhXx.x.x.a.x.x.x.hXhXhXhXH.                  hXhXhX!             -.9XhXhXx.x.x.x.x.a.x.a.x.x.hXhXhX              v hXhXhXhX",
"hXhXhXx.a.x.a.x.x.x.hXhXhXhXhXhXhXv           ~ hXhXhX              -.9Xx.x.hXhXx.x.x.x.x.x.x.x.hXhXhXhXhX              D hXhXhX",
"hXhXx.x.x.x.x.x.x.hXhXhXhXhXhXhXhXhXhXB 6 M hXhXhXhX              2.9Xx.a.x.x.hXhXhXa.x.a.x.hXhXhXhXhXhXhXhX              B hXhX",
"hXx.x.a.x.a.x.x.hXhXhXhXhXhXhXhXhXhXhXhXhXhXhXhXhX            3 F.>Xx.x.x.a.x.a.hXhXhXhXhXhXhXhXhXhXhXhXhXhXhX              K.hX",
"hXx.x.x.x.x.a.x.hXhXhXhXhXhXhXhXhXhXhXhXhXhXhXhXY.            hXhX4.a.x.x.x.x.x.hXhXhXhXhXhXhXhXhXhXhXhXhXhXhXhX]             hX",
"hXx.x.a.x.x.x.hXhXhXhXhXhXhXhXhXhXhXhXhXhXhXhXhX            (.hXhXhXx.x.x.a.x.x.hXhXhXhXhXhXhXhXhXhXhXhXhXhXhXhXhXv           ~ ",
"hXx.x.x.x.x.x.hXhXhXhXhXhXhXhXhXhXhXhXhXhXhXhXhX            hXhXhXhXa.x.x.x.a.x.hXhXhXhXhXhXhXhXhXhXhXhXhXhXhXhXhXo.          = ",
"hXx.a.x.a.x.a.hXhXhXhXhXhXhXhXhXhXhXhXhXhXhXhXhX            hXhXhXhXx.x.x.a.x.a.hXhXhXhXhXhXhXhXhXhXhXhXhXhXhXhXhXo.            ",
"hXx.x.x.x.x.x.x.hXhXhXhXhXhXhXhXhXhXhXhXhXhXhXhX            Q.hXhXw.a.x.x.x.x.x.hXhXhXhXhXhXhXhXhXhXhXhXhXhXhXhXhXv           B ",
"hXhXa.x.a.x.x.x.x.hXhXhXhXhXhXhXhXhXhXhXhXhXhXhX@.            hXhXa.x.x.x.x.x.x.hXhXhXhXhXhXhXhXhXhXhXhXhXhXhXhXY.            hX",
"hXhXx.x.x.x.x.a.x.x.hXhXhXhXhXhXhXhXhXhXhXhXhXhXhX              [.c.x.x.a.x.a.hXhXhXhXhXhXhXhXhXhXhXhXhXhXhXhXhX            @.hX",
"hXhXhXx.x.x.a.x.a.x.x.hXhXhXhXhXhXhXhXhXhXhXhXhXhXhX        2 x.[.a.x.a.x.c.hXhXhXhXhXhXhXhXhXhXhXhXhXhXhXhXhX            D hXhX",
"hXhXhXhXx.x.x.x.x.x.x.hXhXhXhXhXhXhXhXhXhXhXhXhXhXhXhX    2 x.6Xa.x.x.x.x.hXhXhXhXhXhXhXhXhXhXhXhXhXhXhXhXhX            _ hXhXhX",
"hXhXhXhXhXx.x.x.a.x.a.x.hXhXhXhXhXhXhXhXhXhXhXhXhXhXhXhX9 w.>Xa.x.a.[.>XhXhXhXhXhXhXhXhXhXhXhXhXhXhXhXhXhX            _ hXhXhXhX",
"hXhXhXhXhXhXx.x.x.x.x.x.x.hXhXhXhXhXhXhXhXhXhXhXhXhXhXhXS.[.a.x.a.oXc.1.hXhXhXhXhXhXhXhXhXhXhXhXhXhXhXhX              hXhXhXhXhX",
"hXhXhXhXhXhXhXx.x.x.x.x.x.x.hXhXhXhXhXhXhXhXhXhXhXhXhXw.c.c.x.a.oX>XL & ! hXhXhXhXhXhXhXhXhXhXhXhXhXhX              hXhXhXhXhXhX",
"hXhXhXhXhXhXhXhXx.a.x.a.x.x.x.hXhXhXhXhXhXhXhXhXhXhXx.x.x.x.x.[.[.H         hXhXhXhXhXhXhXhXhXhXhXhX              hXhXhXhXhXhXhX",
"hXhXhXhXhXhXhXhXhXx.x.x.x.x.x.x.hXhXhXhXhXhXhXhXhXx.x.x.x.x.x.,Xg             hXhXhXhXhXhXhXhXhXhX              hXhXhXhXhXhXhXhX",
"hXhXhXhXhXhXhXhXhXhXx.a.x.a.x.x.x.hXhXhXhXhXhXx.x.x.x.a.x.x.e.hXhX&             hXhXhXhXhXhXhXhX              hXhXhXhXhXhXhXhXhX",
"hXhXhXhXhXhXhXhXhXhXhXx.x.x.a.x.x.x.hXhXhXhXx.a.a.x.a.x.x.c.hXhXhXhX              hXhXhXhXhXP.              hXhXhXhXhXhXhXhXhXhX",
"hXhXhXhXhXhXhXhXhXhXhXhXx.x.x.x.x.a.x.x.x.x.x.x.x.x.x.x.x.hXhXhXhXhXhX              B %.O.=               hXhXhXhXhXhXhXhXhXhXhX",
"hXhXhXhXhXhXhXhXhXhXhXhXhXx.a.x.x.x.x.x.x.a.x.a.x.x.x.x.hXhXhXhXhXhXhX                                  hXhXhXhXhXhXhXhXhXhXhXhX",
"hXhXhXhXhXhXhXhXhXhXhXhXhXhXx.x.x.a.x.a.x.x.x.x.x.a.x.hXhXhXhXhXhXhXhXhXB                             hXhXhXhXhXhXhXhXhXhXhXhXhX",
"hXhXhXhXhXhXhXhXhXhXhXhXhXhXhXx.x.x.a.x.x.x.x.x.x.x.hXhXhXhXhXhXhXhXhXhXhXgX                      6 hXhXhXhXhXhXhXhXhXhXhXhXhXhX",
"hXhXhXhXhXhXhXhXhXhXhXhXhXhXhXhXx.x.x.x.a.x.a.x.x.hXhXhXhXhXhXhXhXhXhXhXhXhXhX                  6 hXhXhXhXhXhXhXhXhXhXhXhXhXhXhX",
"hXhXhXhXhXhXhXhXhXhXhXhXhXhXhXhXhXx.x.x.x.x.x.x.hXhXhXhXhXhXhXhXhXhXhXhXhXhXhXhX%.            ] hXhXhXhXhXhXhXhXhXhXhXhXhXhXhXhX",
"hXhXhXhXhXhXhXhXhXhXhXhXhXhXhXhXhXhXhXx.a.x.hXhXhXhXhXhXhXhXhXhXhXhXhXhXhXhXhXhXhXhXD 6 6 e hXhXhXhXhXhXhXhXhXhXhXhXhXhXhXhXhXhX"
};
