/* XPM */
static char *_511049343923[] = {
/* columns rows colors chars-per-pixel */
"32 32 168 2 ",
"   c black",
".  c #000101",
"X  c #010101",
"o  c #000202",
"O  c #000303",
"+  c gray1",
"@  c #040000",
"#  c #040404",
"$  c gray2",
"%  c #060606",
"&  c #080000",
"*  c #090000",
"=  c #0F0000",
"-  c #0D0606",
";  c #040A0A",
":  c #070F0F",
">  c gray4",
",  c #0B0B0B",
"<  c gray5",
"1  c gray6",
"2  c #1B0000",
"3  c #1C0000",
"4  c #1D0000",
"5  c #100808",
"6  c #1F0F0F",
"7  c #071010",
"8  c #011616",
"9  c #0A1111",
"0  c #081313",
"q  c #111111",
"w  c #131313",
"e  c #161616",
"r  c gray9",
"t  c #1D1515",
"y  c #181818",
"u  c #191919",
"i  c gray10",
"p  c #1B1B1B",
"a  c #1F1A1A",
"s  c #1B1C1C",
"d  c #1D1D1D",
"f  c #220000",
"g  c #240101",
"h  c #270000",
"j  c #270101",
"k  c #250505",
"l  c #2C0E0E",
"z  c #3C0000",
"x  c #261313",
"c  c #2D1616",
"v  c #221E1E",
"b  c #1D2D2D",
"n  c #202020",
"m  c #232A2A",
"M  c gray16",
"N  c gray19",
"B  c #333737",
"V  c #363434",
"C  c #373737",
"Z  c #383333",
"A  c #3C3C3C",
"S  c gray24",
"D  c #3E3E3E",
"F  c #3F3F3F",
"G  c #400303",
"H  c #4C0000",
"J  c #4D0000",
"K  c #4F0000",
"L  c #510101",
"P  c #550000",
"I  c #520606",
"U  c #5A0000",
"Y  c #5F0000",
"T  c #5D0505",
"R  c #610000",
"E  c #6D0000",
"W  c #6E0000",
"Q  c #610A0A",
"!  c #700000",
"~  c #710000",
"^  c #720000",
"/  c #730000",
"(  c #740000",
")  c #750000",
"_  c #760000",
"`  c #770000",
"'  c #770101",
"]  c #740303",
"[  c #790000",
"{  c #790101",
"}  c #7A0000",
"|  c #7B0000",
" . c #7A0101",
".. c #7B0101",
"X. c #7C0000",
"o. c #7D0000",
"O. c #7D0101",
"+. c #7E0000",
"@. c #7F0000",
"#. c #7E0101",
"$. c #740808",
"%. c #770C0C",
"&. c #7D0A0A",
"*. c #790D0D",
"=. c #234343",
"-. c #2B4A4A",
";. c #334A4A",
":. c gray25",
">. c gray26",
",. c #434343",
"<. c #464646",
"1. c #4B4B4B",
"2. c #4D5151",
"3. c gray36",
"4. c #5F5F5F",
"5. c #496969",
"6. c #516161",
"7. c #536060",
"8. c #576969",
"9. c #626262",
"0. c gray39",
"q. c gray40",
"w. c #626C6C",
"e. c #6F6F6F",
"r. c #637171",
"t. c #627272",
"y. c gray47",
"u. c #800000",
"i. c #810000",
"p. c #830000",
"a. c #820101",
"s. c #830101",
"d. c #840000",
"f. c #850000",
"g. c #850101",
"h. c #860000",
"j. c #870000",
"k. c #860101",
"l. c #890000",
"z. c #880101",
"x. c #890101",
"c. c #8B0000",
"v. c #8A0101",
"b. c #8B0101",
"n. c #8D0000",
"m. c #8C0101",
"M. c #8D0101",
"N. c #8E0101",
"B. c #8F0202",
"V. c #8F0505",
"C. c #890E0E",
"Z. c #900000",
"A. c #900101",
"S. c #940000",
"D. c #950101",
"F. c #960202",
"G. c #9B0101",
"H. c #9E0505",
"J. c #861111",
"K. c #891212",
"L. c #8F1414",
"P. c #921212",
"I. c #931A1A",
"U. c #981D1D",
"Y. c #9B1E1E",
"T. c #882E2E",
"R. c #9A3131",
"E. c None",
/* pixels */
"E.E.E.E.E.E.E.E.0.$ # A E.E.E.E.E.E.E.E.........E.E.E.E.E.E.E.E.",
"E.E.E.E.E.E.E.>.        a E.E.E.E.E.E.[ ..[ ......E.E.E.E.E.E.E.",
"E.E.E.E.E.E.N             i E.E.E.E.[ [ O.[ [ [ ....E.E.E.E.E.E.",
"E.E.E.E.E.A     , E.E.M     m E.E.W ....[ E.E.O.......E.E.E.E.E.",
"E.E.E.E.>.    q E.E.E.E.,.    a Y.[ [ [ E.E.E.E.........E.E.E.E.",
"E.E.E.>.    r E.E.E.E.E.E.5.  K O.B.O.E.E.E.E.E.E.........E.E.E.",
"E.E.>.    i E.E.E.E.E.E.E.E.T v.B.L E.E.E.E.E.E.E.E.[ [ ....E.E.",
"E.>.    i E.E.E.E.E.E.E.E.( v.s.P   =.E.E.E.E.E.E.E.E.] ......E.",
"0.    N E.E.E.E.E.E.E.E.......K.s     <.E.E.E.E.E.E.E.E.........",
"      E.E.E.E.E.E.E.E.E.....( E.E.      E.E.E.E.E.E.E.E.E...] ..",
"      E.E.E.E.E.E.E.E.E.[ ..^ E.E.      E.E.E.E.E.E.E.E.E...[ [ ",
"e.    1 E.E.E.E.E.E.E.E.E.( v.J.t     y.E.E.E.E.E.E.E.E.........",
"E.1.    > E.E.E.[ [ [ [ E.b.s.=     t.E.E.  1 E.E.E.E.O.....] E.",
"E.E.C     ;.E.s.[ [ [ [ k.E.@     k E.7.        8.E.[ ( ....E.E.",
"E.E.E.7.    * s.A.( ^ O.b.[ 3   f G.R             3 B.d.O.E.E.E.",
"E.E.E.E.Z     = $.E.E.T.] B.O.G &.F.d.U x E.E.9     g Y.E.E.E.E.",
"E.E.E.E.P.g     ; E.E.b g s.F.V.l K v.s.K.E.E.$.*     C E.E.E.E.",
"E.E.E.( v.A.3             z H.3   # Q v.O.( ^ A.^ x       E.E.E.",
"E.E.[ [ ( [ E.t.        2.E.c     - E.d.....[ [ F.E.0     $ E.E.",
"E...[ O.[ E.E.E.E.r   4.E.w.    = d.v.E.E.....[ E.E.E.      q.E.",
"E.......E.E.E.E.E.E.E.E.e.    B R.d.] O.E.E.E.E.E.E.E.E.r     E.",
"........E.E.E.E.E.E.E.E.    9 E.E.W [ O.E.E.E.E.E.E.E.E.E.      ",
"....] [ E.E.E.E.E.E.E.E.@ @ 7 E.E.^ [ [ E.E.E.E.E.E.E.E.E.      ",
"E.....[ [ E.E.E.E.E.E.E.;.    u I.O.[ [ E.E.E.E.E.E.E.E.a     e.",
"E.E.......] E.E.E.E.E.E.E.-.  H s.d.d.E.E.E.E.E.E.E.E.    # e.E.",
"E.E.E.......E.E.E.E.E.E.E.E.I v.v.*.E.E.E.E.E.E.E.E.      1 E.E.",
"E.E.E.E.....[ E.E.E.E.E.E.[ A.s.Y 5 8 E.E.E.E.E.E.        E.E.E.",
"E.E.E.E.E.....[ E.E.E.E...[ O.L.v       E.E.E.E.        E.E.E.E.",
"E.E.E.E.E.E.....[ E.E...[ [ d.E.E.      n E.E.i       E.E.E.E.E.",
"E.E.E.E.E.E.E...] ..[ ....[ E.E.E.E.                E.E.E.E.E.E.",
"E.E.E.E.E.E.E.E...........E.E.E.E.E.E.A         >.E.E.E.E.E.E.E.",
"E.E.E.E.E.E.E.E.E.......E.E.E.E.E.E.E.E.0.>   3.E.E.E.E.E.E.E.E."
};
